<svg id="Layer_1" data-name="Layer 1" xmlns="http://www.w3.org/2000/svg" viewBox="0 0 64 64"><path d="M51.09.86H12.91A12.2,12.2,0,0,0,.71,13.06V50.94a12.2,12.2,0,0,0,12.2,12.2H51.09a12.2,12.2,0,0,0,12.2-12.2V13.06A12.2,12.2,0,0,0,51.09.86ZM43.42,29.33h8.82c-.4,3-.78,6-1.17,9H43.32V57.9H34.05V38.31H26.37V29.39H34V28.6c0-2.58,0-5.15.14-7.72A10.22,10.22,0,0,1,44.06,11c2.77-.16,5.56,0,8.38.07v8.18h-1c-1.71,0-3.43,0-5.13.15a2.85,2.85,0,0,0-2.82,2.9C43.33,24.64,43.42,26.94,43.42,29.33Z" style="fill:#9e9e9e"/></svg>