<svg id="Layer_1" data-name="Layer 1" xmlns="http://www.w3.org/2000/svg" viewBox="0 0 64 64"><path d="M51.1.89c-.41,0-.82-.06-1.24-.06C37.92.89,26,.85,14.05.86l-.82,0h-.32A12.2,12.2,0,0,0,.71,13.08V51a12.2,12.2,0,0,0,12.2,12.2H51.09A12.2,12.2,0,0,0,63.29,51V13.08A12.19,12.19,0,0,0,51.1.89ZM48.79,12.81a2.41,2.41,0,1,1,4.82,0,2.38,2.38,0,0,1-2.32,2.38A2.4,2.4,0,0,1,48.79,12.81Zm2,18.82c.17,10.82-7.83,19-18.78,19.11A18.79,18.79,0,0,1,13.15,32.39C13,21.53,20.81,13.58,31.34,13.22A18.76,18.76,0,0,1,50.75,31.63Z" style="fill:#9e9e9e"/><path d="M32,16.85A15.12,15.12,0,1,0,47.09,32,15.21,15.21,0,0,0,32,16.85Z" style="fill:#9e9e9e"/></svg>