<svg id="Layer_1" data-name="Layer 1" xmlns="http://www.w3.org/2000/svg" viewBox="0 0 64 64"><path d="M51.09.86H12.91A12.2,12.2,0,0,0,.71,13.06V50.94a12.2,12.2,0,0,0,12.2,12.2H51.09a12.2,12.2,0,0,0,12.2-12.2V13.06A12.2,12.2,0,0,0,51.09.86ZM19.66,39.22a7.9,7.9,0,0,1-2.8-3.86h3.3l0-.18a8,8,0,0,1-6-7.62l3.25.92.11-.19a8,8,0,0,1-3.13-4.67A7.65,7.65,0,0,1,15.26,18a23,23,0,0,0,16.27,8.14,4,4,0,0,0,0-.49,7.8,7.8,0,0,1,4-8.16,8,8,0,0,1,9.12,1.1,1,1,0,0,0,1.15.26l4.25-1.51a7.76,7.76,0,0,1-3.17,3.91l.09.2,4.11-1.08a13.2,13.2,0,0,1-3,3.22,1.83,1.83,0,0,0-.79,1.61,22.52,22.52,0,0,1-7.2,16.46,20.93,20.93,0,0,1-11.87,5.62,23.09,23.09,0,0,1-14.09-2.33,9.75,9.75,0,0,1-1.34-.83,16.52,16.52,0,0,0,11.44-3.34A8.21,8.21,0,0,1,19.66,39.22Z" style="fill:#9e9e9e"/></svg>